<?xml version="1.0" encoding="UTF-8" standalone="no"?>
<!-- Created with Inkscape (http://www.inkscape.org/) -->

<svg
   xmlns:dc="http://purl.org/dc/elements/1.1/"
   xmlns:cc="http://creativecommons.org/ns#"
   xmlns:rdf="http://www.w3.org/1999/02/22-rdf-syntax-ns#"
   xmlns:svg="http://www.w3.org/2000/svg"
   xmlns="http://www.w3.org/2000/svg"
   xmlns:xlink="http://www.w3.org/1999/xlink"
   xmlns:sodipodi="http://sodipodi.sourceforge.net/DTD/sodipodi-0.dtd"
   xmlns:inkscape="http://www.inkscape.org/namespaces/inkscape"
   width="420"
   height="1110"
   viewBox="0 0 420 1110"
   id="svg2"
   version="1.1"
   inkscape:version="0.91 r"
   sodipodi:docname="swirl.svg">
  <defs
     id="defs4">
    <linearGradient
       inkscape:collect="always"
       id="linearGradient4180">
      <stop
         style="stop-color:#000000;stop-opacity:1;"
         offset="0"
         id="stop4149" />
      <stop
         style="stop-color:#000000;stop-opacity:0;"
         offset="1"
         id="stop4151" />
    </linearGradient>
    <radialGradient
       inkscape:collect="always"
       xlink:href="#linearGradient4180"
       id="radialGradient4153"
       cx="269.32999"
       cy="631.36188"
       fx="269.32999"
       fy="631.36188"
       r="129.78075"
       gradientTransform="matrix(2.2986125,-0.2371888,0.68050588,6.5948298,-852.92615,-3268.1747)"
       gradientUnits="userSpaceOnUse" />
  </defs>
  <sodipodi:namedview
     id="base"
     pagecolor="#ffffff"
     bordercolor="#666666"
     borderopacity="1.0"
     inkscape:pageopacity="0.0"
     inkscape:pageshadow="2"
     inkscape:zoom="0.35"
     inkscape:cx="-37.592394"
     inkscape:cy="646.02173"
     inkscape:document-units="px"
     inkscape:current-layer="layer1"
     showgrid="false"
     inkscape:window-width="1366"
     inkscape:window-height="719"
     inkscape:window-x="0"
     inkscape:window-y="312"
     inkscape:window-maximized="1"
     units="px" />
  <metadata
     id="metadata7">
    <rdf:RDF>
      <cc:Work
         rdf:about="">
        <dc:format>image/svg+xml</dc:format>
        <dc:type
           rdf:resource="http://purl.org/dc/dcmitype/StillImage" />
        <dc:title></dc:title>
      </cc:Work>
    </rdf:RDF>
  </metadata>
  <g
     inkscape:label="Layer 1"
     inkscape:groupmode="layer"
     id="layer1"
     transform="translate(0,57.63786)">
    <path
       style="opacity:0.28999999;fill:none;fill-opacity:1;fill-rule:evenodd;stroke:url(#radialGradient4153);stroke-width:1.33970773px;stroke-linecap:butt;stroke-linejoin:miter;stroke-opacity:1"
       d="m 233.10348,791.97999 0,0 0,0 0,0 0,0 0,0 0,0 0,0 0,0 0,-1e-5 2e-5,1e-5 -3e-5,2e-5 c -3e-5,0 -4e-5,-3e-5 -4e-5,-6e-5 0,-5e-5 7e-5,-9e-5 1.2e-4,-9e-5 1.5e-4,0 2.3e-4,1.5e-4 2.3e-4,2.7e-4 -1e-5,3e-4 -3.4e-4,4.8e-4 -6e-4,4.6e-4 -6.2e-4,-10e-6 -9.7e-4,-6.8e-4 -9.4e-4,-10e-4 6e-5,-10e-4 0.001,-10e-4 0.003,-10e-4 0.003,1.6e-4 0.004,0.003 0.004,0.005 -3.9e-4,0.004 -0.005,0.007 -0.009,0.007 -0.008,-8.2e-4 -0.0121,-0.009 -0.0107,-0.0166 0.001,-0.0141 0.0168,-0.0213 0.0296,-0.0196 0.0241,0.003 0.0366,0.0292 0.0334,0.0515 -0.005,0.0407 -0.05,0.0616 -0.0876,0.0557 -0.0675,-0.0107 -0.10168,-0.0837 -0.0914,-0.14616 0.0182,-0.10972 0.13754,-0.16478 0.23934,-0.14687 0.17548,0.0309 0.26276,0.22207 0.23245,0.38522 -0.0513,0.27606 -0.35278,0.41245 -0.6101,0.36229 -0.42796,-0.0835 -0.63808,-0.55192 -0.55666,-0.95174 0.13317,-0.65437 0.85122,-0.97376 1.46388,-0.84399 0.98765,0.20921 1.46708,1.29537 1.26362,2.22193 -0.32338,1.47263 -1.94653,2.18378 -3.3307,1.86965 -2.17064,-0.49264 -3.21384,-2.89046 -2.73566,-4.9344 0.74046,-3.16498 4.24429,-4.67917 7.2296,-3.9609 4.56774,1.09902 6.74373,6.16657 5.67809,10.48194 -1.61213,6.52848 -8.87008,9.626 -15.04724,8.06333 -9.24536,-2.33887 -13.61523,-12.63818 -11.34856,-21.39863 3.35814,-12.97881 17.84524,-19.09121 30.16021,-15.83705 18.06896,4.77462 26.54952,24.98253 21.92283,42.14967 -6.72612,24.95696 -34.69022,36.63241 -58.43102,30.11441 -34.21145,-9.39269 -50.16703,-47.79704 -41.06415,-80.37987 13.00807,-46.56098 65.36938,-68.21249 109.76395,-55.60412 62.93375,17.87365 92.11707,88.77127 74.7897,148.84155 C 328.21568,936.85174 232.85384,975.93404 152.10977,952.29854 39.35025,919.29141 -9.7709193,792.65227 19.34548,683.98836 86.63414,432.86367 396.75289,389.09015 95.304964,-53.94978"
       id="path4136"
       inkscape:connector-curvature="0"
       sodipodi:nodetypes="ccccccccccccsscccccccccccccccssssssssssssscssc" />
  </g>
</svg>
